<?xml version="1.0" standalone="no"?>
<!DOCTYPE svg PUBLIC "-//W3C//DTD SVG 20010904//EN"
 "http://www.w3.org/TR/2001/REC-SVG-20010904/DTD/svg10.dtd">
<svg version="1.0" xmlns="http://www.w3.org/2000/svg"
 width="500.000000pt" height="500.000000pt" viewBox="0 0 500.000000 500.000000"
 preserveAspectRatio="xMidYMid meet">
<metadata>
Created by potrace 1.14, written by Peter Selinger 2001-2017
</metadata>
<g transform="translate(0.000000,500.000000) scale(0.100000,-0.100000)"
fill="#000000" stroke="none">
<path d="M2255 4914 c-470 -50 -946 -251 -1305 -549 -93 -78 -277 -266 -352
-361 -213 -269 -386 -631 -462 -970 -76 -333 -77 -718 -5 -1054 97 -446 329
-869 654 -1195 606 -605 1483 -845 2319 -634 318 80 657 249 916 457 426 342
726 822 845 1352 84 374 79 774 -15 1141 -136 534 -457 1012 -900 1343 -241
180 -549 327 -843 402 -218 56 -296 65 -562 69 -137 1 -268 1 -290 -1z m595
-154 c652 -106 1195 -455 1561 -1004 181 -272 304 -596 355 -941 24 -164 24
-467 0 -630 -96 -658 -458 -1229 -1010 -1596 -271 -180 -560 -291 -911 -350
-106 -18 -170 -22 -345 -22 -230 0 -364 16 -570 68 -800 201 -1442 846 -1645
1650 -49 193 -67 350 -68 570 -2 523 169 1009 501 1429 72 91 245 264 345 345
352 285 782 459 1242 501 136 13 403 3 545 -20z"/>
<path d="M2281 4639 c-177 -17 -430 -81 -607 -154 -171 -70 -387 -199 -529
-315 -95 -78 -287 -278 -359 -373 -299 -400 -453 -887 -433 -1372 23 -543 227
-1027 591 -1404 328 -339 696 -541 1146 -630 843 -168 1705 191 2193 911 274
404 402 902 357 1387 -110 1198 -1161 2066 -2359 1950z m-291 -1605 c33 -13
39 -20 34 -38 -3 -11 -29 -100 -58 -196 l-53 -175 -54 0 -54 0 -41 202 c-23
111 -39 205 -36 208 3 3 24 5 48 5 l42 0 21 -91 c12 -50 21 -98 21 -107 0 -32
18 5 44 93 35 116 34 115 40 115 3 0 24 -7 46 -16z m173 -1 c2 -5 1 -57 -4
-118 -5 -60 -9 -152 -9 -202 l-1 -93 -56 0 -56 0 7 153 c3 83 9 178 12 210 l7
57 48 0 c26 0 50 -3 52 -7z m277 -80 c0 -109 -15 -215 -36 -259 -48 -102 -206
-97 -234 7 -16 58 -9 69 44 69 39 0 45 -3 50 -26 5 -17 12 -24 24 -22 32 6 42
48 42 179 0 69 3 129 7 132 3 4 28 7 55 7 l48 0 0 -87z m253 70 c8 -10 20 -37
26 -60 12 -45 61 -310 61 -330 0 -9 -17 -13 -54 -13 -57 0 -66 7 -66 56 0 25
-8 28 -58 18 -25 -5 -31 -12 -37 -40 -6 -34 -6 -34 -60 -34 -47 0 -55 3 -55
18 0 51 119 379 143 394 23 14 83 9 100 -9z m214 -58 c15 -41 30 -75 33 -75 3
0 17 30 30 66 14 36 30 70 37 75 16 14 83 0 83 -17 0 -7 -22 -70 -50 -139 -27
-69 -50 -138 -50 -153 0 -15 -3 -44 -6 -64 l-7 -38 -50 0 -50 0 6 56 c5 49 0
72 -43 195 l-50 140 33 14 c17 8 37 14 44 15 6 0 24 -34 40 -75z m445 45 c14
-17 18 -36 16 -69 l-3 -46 -40 0 c-36 0 -40 3 -45 30 -7 40 -35 41 -35 1 0
-24 10 -37 45 -64 80 -61 97 -109 63 -179 -29 -62 -118 -81 -200 -43 -47 21
-50 28 -28 70 l15 30 45 -22 c41 -20 47 -21 60 -7 21 20 10 44 -29 69 -68 41
-86 66 -86 115 0 95 57 149 149 142 42 -3 59 -9 73 -27z m-1897 -702 c46 -41
46 -141 -1 -197 l-25 -30 31 -60 30 -61 -40 -26 c-22 -15 -44 -24 -47 -20 -4
4 -21 33 -38 64 -16 31 -38 58 -47 60 -14 3 -17 -7 -20 -60 l-3 -63 -49 -3
-48 -3 7 125 c4 69 10 161 14 203 l6 78 45 6 c105 14 158 10 185 -13z m275 7
c50 -26 65 -67 64 -175 -1 -106 -15 -148 -63 -194 -22 -22 -43 -30 -80 -34
-47 -4 -53 -2 -85 30 -44 44 -55 87 -46 180 16 163 107 246 210 193z m316 0
c29 -20 46 -65 42 -111 l-3 -39 -50 0 -50 0 0 35 c0 45 -22 46 -48 2 -20 -35
-34 -134 -23 -176 7 -29 36 -35 56 -11 10 13 9 15 -10 15 -20 0 -21 3 -15 43
9 52 11 54 61 63 81 12 107 -57 57 -153 -34 -64 -126 -93 -192 -58 -76 39 -80
238 -8 338 42 61 134 87 183 52z m309 -7 c46 -41 46 -141 -1 -197 l-25 -30 31
-60 30 -61 -40 -26 c-22 -15 -44 -24 -47 -20 -4 4 -21 33 -38 64 -16 31 -38
58 -47 60 -14 3 -17 -7 -20 -60 l-3 -63 -49 -3 -48 -3 7 125 c4 69 10 161 14
203 l6 78 45 6 c105 14 158 10 185 -13z m317 -18 c14 -29 37 -137 73 -348 l6
-33 -58 3 -58 3 -3 38 c-3 39 -8 41 -60 31 -23 -5 -32 -14 -39 -38 -8 -29 -12
-31 -57 -34 -27 -2 -52 0 -57 5 -17 18 107 377 139 401 9 7 35 12 57 10 35 -3
42 -8 57 -38z m205 25 c13 -9 27 -39 38 -82 10 -38 21 -72 25 -76 4 -4 15 14
25 40 42 112 55 133 85 133 57 0 60 -12 60 -226 l0 -195 -52 3 -53 3 3 60 2
60 -19 -36 c-38 -69 -71 -75 -95 -18 -10 25 -14 28 -20 14 -3 -9 -6 -32 -6
-51 l0 -34 -49 0 c-28 0 -52 3 -54 8 -5 8 12 380 18 400 6 17 66 15 92 -3z
m357 4 c20 -10 29 -27 47 -95 12 -47 23 -83 25 -82 1 2 19 45 39 96 l38 93 36
-3 c55 -5 61 -25 61 -235 l0 -183 -55 0 -55 0 -1 63 0 62 -22 -42 c-33 -68
-77 -67 -94 0 -7 30 -8 28 -13 -23 l-5 -55 -54 -3 -54 -3 8 203 c4 112 9 206
12 211 6 11 59 9 87 -4z m371 -126 c-4 -76 -7 -171 -6 -210 l2 -73 -57 0 -57
0 7 188 c4 103 9 197 13 210 4 19 12 22 55 22 l51 0 -8 -137z m144 111 c11
-14 28 -49 38 -77 l18 -52 9 78 9 78 46 -3 c39 -3 46 -6 44 -23 -1 -11 -5
-104 -9 -207 l-7 -188 -48 0 -47 0 -30 83 c-16 45 -33 93 -38 107 -7 18 -10
-3 -14 -80 l-5 -105 -52 -3 c-46 -3 -53 -1 -53 15 0 43 20 341 25 371 6 30 8
32 50 32 35 0 48 -5 64 -26z m422 -4 c27 -26 30 -35 27 -82 l-3 -53 -47 -3
-47 -3 -3 38 c-4 51 -27 50 -52 -2 -27 -54 -29 -172 -4 -189 14 -8 21 -7 35 7
16 16 16 17 -5 17 -21 0 -22 3 -17 38 10 58 11 60 55 67 84 14 114 -46 70
-142 -24 -55 -70 -83 -133 -83 -67 0 -111 42 -121 116 -10 70 10 174 43 227
51 79 147 102 202 47z m-3029 -9 c27 -24 32 -36 35 -87 6 -94 -33 -142 -135
-166 l-52 -13 0 -57 0 -58 -51 0 -50 0 6 133 c3 72 8 160 11 194 l5 61 47 10
c26 5 71 10 99 11 45 1 58 -3 85 -28z m-322 -723 c23 -25 27 -58 6 -58 -7 0
-16 9 -19 20 -3 11 -12 20 -21 20 -12 0 -16 -10 -16 -39 0 -68 -58 -83 -92
-25 -16 28 -17 33 -3 44 13 11 17 8 26 -19 15 -42 33 -34 37 15 6 66 42 85 82
42z m3378 -80 c7 -7 12 -20 12 -30 0 -14 8 -18 41 -18 55 0 47 -24 -9 -28 -47
-3 -52 -14 -21 -36 20 -14 19 -36 -2 -36 -8 0 -97 59 -123 81 -5 5 3 24 18 44
28 36 61 46 84 23z m-3273 -80 c31 -37 28 -71 -11 -105 -52 -47 -134 -15 -134
53 0 24 8 39 31 58 42 36 80 34 114 -6z m3138 -45 c4 -3 0 -14 -9 -24 -9 -11
-14 -25 -10 -35 6 -15 9 -15 30 5 28 27 47 10 22 -18 -15 -17 -15 -19 0 -32
14 -12 19 -10 36 10 13 17 22 21 30 13 7 -7 2 -20 -18 -45 -32 -41 -33 -40
-108 25 l-48 44 27 32 c27 32 36 37 48 25z m-3018 -98 c31 -40 25 -67 -9 -36
-31 29 -54 13 -32 -22 21 -32 4 -47 -25 -21 -18 16 -20 16 -39 -1 -17 -15 -23
-16 -33 -6 -10 10 0 24 48 67 33 30 61 54 62 54 1 0 14 -16 28 -35z m2915 -40
c-11 -14 -7 -23 33 -63 37 -38 45 -50 35 -60 -10 -10 -22 -2 -60 35 -39 39
-49 44 -62 34 -8 -7 -20 -10 -26 -6 -8 5 3 23 31 51 27 28 47 40 53 34 6 -6 4
-15 -4 -25z m-2800 -73 c27 -23 41 -43 36 -50 -5 -9 -13 -9 -28 -1 -17 9 -26
5 -63 -31 -30 -30 -49 -41 -60 -36 -15 5 -10 15 30 57 44 47 46 51 31 68 -15
16 -13 31 4 31 4 0 27 -17 50 -38z m2719 -79 c46 -53 49 -59 34 -75 -14 -16
-19 -16 -79 6 l-63 23 35 -43 c31 -38 38 -64 16 -64 -4 0 -29 27 -56 61 -44
54 -47 62 -34 76 14 14 21 13 72 -6 31 -12 59 -21 62 -21 3 0 -11 20 -30 43
-32 39 -37 57 -15 57 4 0 30 -26 58 -57z m-2635 -2 c4 -5 -3 -30 -14 -56 -11
-26 -20 -49 -20 -51 0 -3 20 11 45 31 66 55 81 33 41 -59 l-17 -38 44 36 c24
20 49 36 55 36 29 0 15 -22 -44 -70 -59 -46 -68 -51 -81 -37 -13 13 -13 20 6
62 12 26 21 50 21 52 0 3 -19 -12 -42 -31 -47 -40 -51 -42 -67 -22 -8 10 -6
26 12 67 13 30 27 62 30 72 7 18 22 23 31 8z m2431 -80 c3 -5 -6 -18 -20 -29
-20 -16 -22 -22 -12 -31 10 -8 19 -6 35 4 30 22 42 -3 12 -27 -18 -15 -20 -21
-10 -33 11 -13 15 -13 33 0 27 19 37 19 37 1 0 -8 -16 -24 -36 -36 -40 -25
-35 -29 -96 64 -26 39 -29 50 -17 56 8 5 23 16 34 24 23 18 32 19 40 7z
m-2175 -96 c17 -21 -16 -176 -36 -168 -8 3 -14 16 -14 29 0 29 -43 55 -61 37
-12 -12 -39 -7 -39 7 0 8 121 110 131 110 4 0 12 -7 19 -15z m2048 -3 c2 -6
-8 -14 -22 -18 -31 -7 -40 -33 -25 -68 15 -33 44 -42 74 -22 33 22 46 -1 15
-26 -54 -43 -130 -2 -130 72 0 23 7 43 18 52 32 28 62 32 70 10z m-1890 -82
c27 -16 33 -26 30 -48 -2 -16 -12 -31 -25 -37 -20 -8 -22 -15 -16 -49 5 -30 3
-38 -8 -34 -12 4 -18 16 -36 78 -3 11 -9 7 -19 -12 -14 -26 -44 -39 -44 -19 0
21 62 141 73 141 6 0 27 -9 45 -20z m1632 -44 c0 -8 -11 -17 -25 -20 -35 -9
-49 -40 -33 -74 16 -32 61 -38 66 -9 3 15 0 18 -17 12 -32 -10 -27 23 5 35 14
6 27 10 29 10 4 0 25 -61 25 -75 0 -16 -44 -35 -80 -35 -54 0 -92 88 -57 132
27 34 87 51 87 24z m-1453 -27 c14 -5 21 -14 17 -23 -4 -12 -11 -13 -32 -5
-36 14 -51 -11 -17 -29 35 -18 31 -34 -7 -30 -41 4 -53 -26 -14 -36 15 -4 26
-11 26 -16 0 -18 -20 -20 -58 -5 l-40 16 18 47 c45 118 34 109 107 81z m1287
-83 c24 -80 24 -100 2 -104 -12 -3 -36 13 -67 44 -27 27 -49 46 -49 42 0 -3 7
-25 15 -49 16 -43 14 -69 -4 -69 -8 0 -27 52 -46 132 -11 43 22 40 79 -6 46
-38 49 -39 43 -16 -19 66 -20 80 -4 80 10 0 21 -18 31 -54z m-1056 14 c44 -11
61 -42 20 -37 -19 2 -24 -6 -37 -60 -8 -37 -20 -63 -27 -63 -22 0 -24 15 -9
71 18 67 18 69 1 69 -8 0 -18 5 -21 10 -9 14 3 30 18 25 7 -2 31 -9 55 -15z
m832 -17 c0 -5 6 -41 14 -80 13 -69 13 -73 -4 -73 -15 0 -21 13 -30 58 -6 31
-14 67 -17 80 -4 17 -1 22 16 22 12 0 21 -3 21 -7z m-679 -13 c47 0 68 -57 32
-87 -12 -10 -12 -15 1 -42 20 -37 20 -41 1 -41 -9 0 -23 16 -32 35 -20 43 -29
44 -36 5 -4 -19 -13 -30 -23 -30 -14 0 -16 8 -10 63 10 91 16 109 33 103 8 -3
23 -6 34 -6z m573 -32 c19 -125 19 -128 -8 -128 -20 0 -35 12 -62 50 -20 28
-37 50 -38 50 -1 0 1 -24 4 -52 5 -35 3 -55 -4 -60 -18 -12 -24 4 -31 85 -7
76 -7 77 16 77 18 0 33 -14 58 -50 19 -28 36 -50 38 -50 3 0 1 25 -2 55 -6 46
-5 55 8 55 10 0 18 -12 21 -32z m-375 12 c10 -5 21 -22 24 -37 4 -15 13 -49
21 -75 14 -46 14 -48 -4 -48 -10 0 -22 9 -25 20 -4 14 -15 20 -35 20 -20 0
-31 -6 -35 -20 -7 -23 -35 -27 -35 -6 0 7 7 30 15 50 8 20 22 52 29 71 16 38
19 40 45 25z m161 -80 c0 -73 -2 -80 -20 -80 -18 0 -20 7 -20 80 0 73 2 80 20
80 18 0 20 -7 20 -80z"/>
<path d="M2070 2998 c0 -19 2 -20 10 -8 13 19 13 30 0 30 -5 0 -10 -10 -10
-22z"/>
<path d="M2620 2844 c-14 -36 -12 -54 5 -54 11 0 15 11 15 40 0 46 -6 51 -20
14z"/>
<path d="M2710 2705 c0 -11 8 -29 16 -40 15 -19 15 -19 8 10 -8 37 -24 57 -24
30z"/>
<path d="M1333 2233 c-17 -3 -22 -13 -25 -49 -4 -49 0 -51 42 -29 30 15 48 54
35 74 -6 11 -13 12 -52 4z"/>
<path d="M1644 2215 c-18 -43 -29 -144 -20 -180 5 -20 12 -26 29 -23 17 2 25
14 34 48 32 124 -3 250 -43 155z"/>
<path d="M2233 2233 c-17 -3 -22 -13 -25 -49 -4 -49 0 -51 42 -29 30 15 48 54
35 74 -6 11 -13 12 -52 4z"/>
<path d="M2586 2137 c-3 -14 -9 -32 -12 -41 -4 -12 0 -16 15 -16 16 0 21 6 21
28 0 41 -16 60 -24 29z"/>
<path d="M2678 1998 c-3 -7 4 -26 14 -43 l19 -30 -6 35 c-8 40 -20 57 -27 38z"/>
<path d="M3141 2004 c0 -11 3 -14 6 -6 3 7 2 16 -1 19 -3 4 -6 -2 -5 -13z"/>
<path d="M3516 2294 c-11 -28 -6 -39 9 -20 8 11 15 23 15 28 0 14 -18 9 -24
-8z"/>
<path d="M3511 2234 c0 -11 3 -14 6 -6 3 7 2 16 -1 19 -3 4 -6 -2 -5 -13z"/>
<path d="M1018 2223 c-26 -7 -26 -93 0 -93 35 0 63 30 60 63 -3 33 -20 41 -60
30z"/>
<path d="M913 1955 c0 -22 2 -30 4 -17 2 12 2 30 0 40 -3 9 -5 -1 -4 -23z"/>
<path d="M4142 1443 c2 -10 10 -18 18 -18 8 0 16 8 18 18 2 12 -3 17 -18 17
-15 0 -20 -5 -18 -17z"/>
<path d="M836 1389 c-49 -39 -23 -93 34 -69 34 14 49 52 30 75 -17 20 -32 19
-64 -6z"/>
<path d="M1451 849 c-20 -16 -22 -22 -11 -29 19 -12 27 -5 32 25 3 14 5 25 4
25 0 -1 -12 -10 -25 -21z"/>
<path d="M1616 775 c-9 -24 -8 -25 15 -25 14 0 19 5 17 17 -4 23 -24 27 -32 8z"/>
<path d="M2200 590 c0 -15 5 -20 18 -18 9 2 17 10 17 18 0 8 -8 16 -17 18 -13
2 -18 -3 -18 -18z"/>
<path d="M2397 569 c-10 -35 -9 -39 8 -39 16 0 18 14 6 44 -7 18 -8 18 -14 -5z"/>
</g>
</svg>
